<?xml version="1.0" encoding="UTF-8" standalone="no"?>
<!DOCTYPE svg PUBLIC "-//W3C//DTD SVG 1.1//EN"
 "http://www.w3.org/Graphics/SVG/1.1/DTD/svg11.dtd">
<!-- Generated by graphviz version 14.1.2 (20260124.0452)
 -->
<!-- Title: StallDetector Pages: 1 -->
<svg width="1016pt" height="2248pt"
 viewBox="0.00 0.00 1016.00 2248.00" xmlns="http://www.w3.org/2000/svg" xmlns:xlink="http://www.w3.org/1999/xlink">
<g id="graph0" class="graph" transform="scale(1 1) rotate(0) translate(4 2243.6)">
<title>StallDetector</title>
<polygon fill="white" stroke="none" points="-4,4 -4,-2243.6 1012.44,-2243.6 1012.44,4 -4,4"/>
<g id="clust1" class="cluster">
<title>cluster_quorum</title>
<polygon fill="none" stroke="black" stroke-dasharray="5,2" points="558.44,-2119.1 558.44,-2231.6 1000.44,-2231.6 1000.44,-2119.1 558.44,-2119.1"/>
<text xml:space="preserve" text-anchor="middle" x="779.44" y="-2218.1" font-family="Times,serif" font-size="10.00">Quorum Floor Calculation</text>
</g>
<!-- Start -->
<g id="node1" class="node">
<title>Start</title>
<ellipse fill="none" stroke="black" cx="500.44" cy="-2164.98" rx="48.44" ry="30.05"/>
<text xml:space="preserve" text-anchor="middle" x="500.44" y="-2168.93" font-family="Helvetica,sans-Serif" font-size="14.00">Monitor</text>
<text xml:space="preserve" text-anchor="middle" x="500.44" y="-2151.68" font-family="Helvetica,sans-Serif" font-size="14.00">Started</text>
</g>
<!-- Poll -->
<g id="node2" class="node">
<title>Poll</title>
<path fill="lightblue" stroke="black" d="M554.19,-2090.1C554.19,-2090.1 446.69,-2090.1 446.69,-2090.1 440.69,-2090.1 434.69,-2084.1 434.69,-2078.1 434.69,-2078.1 434.69,-2042.35 434.69,-2042.35 434.69,-2036.35 440.69,-2030.35 446.69,-2030.35 446.69,-2030.35 554.19,-2030.35 554.19,-2030.35 560.19,-2030.35 566.19,-2036.35 566.19,-2042.35 566.19,-2042.35 566.19,-2078.1 566.19,-2078.1 566.19,-2084.1 560.19,-2090.1 554.19,-2090.1"/>
<text xml:space="preserve" text-anchor="middle" x="500.44" y="-2072.8" font-family="Helvetica,sans-Serif" font-size="14.00">Poll State</text>
<text xml:space="preserve" text-anchor="middle" x="500.44" y="-2055.55" font-family="Helvetica,sans-Serif" font-size="14.00">(100ms&#45;1000ms</text>
<text xml:space="preserve" text-anchor="middle" x="500.44" y="-2038.3" font-family="Helvetica,sans-Serif" font-size="14.00">adaptive)</text>
</g>
<!-- Start&#45;&gt;Poll -->
<g id="edge1" class="edge">
<title>Start&#45;&gt;Poll</title>
<path fill="none" stroke="black" d="M500.44,-2134.54C500.44,-2124.34 500.44,-2112.74 500.44,-2101.81"/>
<polygon fill="black" stroke="black" points="503.94,-2101.84 500.44,-2091.84 496.94,-2101.84 503.94,-2101.84"/>
</g>
<!-- StateGone -->
<g id="node3" class="node">
<title>StateGone</title>
<path fill="none" stroke="black" d="M138.67,-1986.38C138.67,-1986.38 98.7,-1957.83 98.7,-1957.83 93.82,-1954.34 93.82,-1947.37 98.7,-1943.88 98.7,-1943.88 138.67,-1915.33 138.67,-1915.33 143.55,-1911.84 153.32,-1911.84 158.2,-1915.33 158.2,-1915.33 198.17,-1943.88 198.17,-1943.88 203.05,-1947.37 203.05,-1954.34 198.17,-1957.83 198.17,-1957.83 158.2,-1986.38 158.2,-1986.38 153.32,-1989.87 143.55,-1989.87 138.67,-1986.38"/>
<text xml:space="preserve" text-anchor="middle" x="148.44" y="-1954.8" font-family="Helvetica,sans-Serif" font-size="14.00">State</text>
<text xml:space="preserve" text-anchor="middle" x="148.44" y="-1937.55" font-family="Helvetica,sans-Serif" font-size="14.00">Gone?</text>
</g>
<!-- Poll&#45;&gt;StateGone -->
<g id="edge2" class="edge">
<title>Poll&#45;&gt;StateGone</title>
<path fill="none" stroke="black" d="M434.23,-2039.03C366.41,-2018.34 262.37,-1986.61 200.3,-1967.67"/>
<polygon fill="black" stroke="black" points="201.62,-1964.42 191.04,-1964.85 199.58,-1971.11 201.62,-1964.42"/>
</g>
<!-- OutcomeReady -->
<g id="node4" class="node">
<title>OutcomeReady</title>
<path fill="none" stroke="black" d="M137.87,-1853.92C137.87,-1853.92 80,-1822.79 80,-1822.79 74.72,-1819.95 74.72,-1814.26 80,-1811.42 80,-1811.42 137.87,-1780.29 137.87,-1780.29 143.15,-1777.45 153.72,-1777.45 159,-1780.29 159,-1780.29 216.87,-1811.42 216.87,-1811.42 222.15,-1814.26 222.15,-1819.95 216.87,-1822.79 216.87,-1822.79 159,-1853.92 159,-1853.92 153.72,-1856.76 143.15,-1856.76 137.87,-1853.92"/>
<text xml:space="preserve" text-anchor="middle" x="148.44" y="-1821.05" font-family="Helvetica,sans-Serif" font-size="14.00">Outcome</text>
<text xml:space="preserve" text-anchor="middle" x="148.44" y="-1803.8" font-family="Helvetica,sans-Serif" font-size="14.00">Ready?</text>
</g>
<!-- StateGone&#45;&gt;OutcomeReady -->
<g id="edge4" class="edge">
<title>StateGone&#45;&gt;OutcomeReady</title>
<path fill="none" stroke="black" d="M148.44,-1907.81C148.44,-1896.16 148.44,-1883.37 148.44,-1871.19"/>
<polygon fill="black" stroke="black" points="151.94,-1871.27 148.44,-1861.27 144.94,-1871.27 151.94,-1871.27"/>
<text xml:space="preserve" text-anchor="middle" x="154.44" y="-1880.85" font-family="Helvetica,sans-Serif" font-size="10.00">no</text>
</g>
<!-- Exit -->
<g id="node5" class="node">
<title>Exit</title>
<ellipse fill="none" stroke="black" cx="48.44" cy="-30.05" rx="48.44" ry="30.05"/>
<text xml:space="preserve" text-anchor="middle" x="48.44" y="-34" font-family="Helvetica,sans-Serif" font-size="14.00">Exit</text>
<text xml:space="preserve" text-anchor="middle" x="48.44" y="-16.75" font-family="Helvetica,sans-Serif" font-size="14.00">Monitor</text>
</g>
<!-- StateGone&#45;&gt;Exit -->
<g id="edge3" class="edge">
<title>StateGone&#45;&gt;Exit</title>
<path fill="none" stroke="black" d="M110.46,-1935.06C67.2,-1915.43 2.44,-1876.32 2.44,-1818.1 2.44,-1818.1 2.44,-1818.1 2.44,-117.35 2.44,-99.25 10.42,-81.25 19.73,-66.41"/>
<polygon fill="black" stroke="black" points="22.44,-68.65 25.13,-58.41 16.64,-64.74 22.44,-68.65"/>
<text xml:space="preserve" text-anchor="middle" x="11.06" y="-957.6" font-family="Helvetica,sans-Serif" font-size="10.00">yes</text>
</g>
<!-- OutcomeReady&#45;&gt;Exit -->
<g id="edge5" class="edge">
<title>OutcomeReady&#45;&gt;Exit</title>
<path fill="none" stroke="black" d="M112.62,-1793.63C83.92,-1772.55 48.44,-1738.16 48.44,-1696.98 48.44,-1696.98 48.44,-1696.98 48.44,-117.35 48.44,-102.34 48.44,-85.86 48.44,-71.35"/>
<polygon fill="black" stroke="black" points="51.94,-71.73 48.44,-61.73 44.94,-71.73 51.94,-71.73"/>
<text xml:space="preserve" text-anchor="middle" x="57.06" y="-890.73" font-family="Helvetica,sans-Serif" font-size="10.00">yes</text>
</g>
<!-- CheckChanges -->
<g id="node6" class="node">
<title>CheckChanges</title>
<path fill="lightyellow" stroke="black" d="M271.06,-1725.85C271.06,-1725.85 123.81,-1725.85 123.81,-1725.85 117.81,-1725.85 111.81,-1719.85 111.81,-1713.85 111.81,-1713.85 111.81,-1678.1 111.81,-1678.1 111.81,-1672.1 117.81,-1666.1 123.81,-1666.1 123.81,-1666.1 271.06,-1666.1 271.06,-1666.1 277.06,-1666.1 283.06,-1672.1 283.06,-1678.1 283.06,-1678.1 283.06,-1713.85 283.06,-1713.85 283.06,-1719.85 277.06,-1725.85 271.06,-1725.85"/>
<text xml:space="preserve" text-anchor="middle" x="197.44" y="-1708.55" font-family="Helvetica,sans-Serif" font-size="14.00">Detect Changes</text>
<text xml:space="preserve" text-anchor="middle" x="197.44" y="-1691.3" font-family="Helvetica,sans-Serif" font-size="14.00">• Status changed?</text>
<text xml:space="preserve" text-anchor="middle" x="197.44" y="-1674.05" font-family="Helvetica,sans-Serif" font-size="14.00">• Resources changed?</text>
</g>
<!-- OutcomeReady&#45;&gt;CheckChanges -->
<g id="edge6" class="edge">
<title>OutcomeReady&#45;&gt;CheckChanges</title>
<path fill="none" stroke="black" d="M162.48,-1781.97C168.3,-1767.8 175.1,-1751.28 181.14,-1736.59"/>
<polygon fill="black" stroke="black" points="184.24,-1738.25 184.81,-1727.67 177.77,-1735.59 184.24,-1738.25"/>
<text xml:space="preserve" text-anchor="middle" x="183.33" y="-1747.1" font-family="Helvetica,sans-Serif" font-size="10.00">no</text>
</g>
<!-- QueueCheckUpdate -->
<g id="node7" class="node">
<title>QueueCheckUpdate</title>
<path fill="none" stroke="black" d="M402.81,-1617.35C402.81,-1617.35 278.06,-1617.35 278.06,-1617.35 272.06,-1617.35 266.06,-1611.35 266.06,-1605.35 266.06,-1605.35 266.06,-1586.85 266.06,-1586.85 266.06,-1580.85 272.06,-1574.85 278.06,-1574.85 278.06,-1574.85 402.81,-1574.85 402.81,-1574.85 408.81,-1574.85 414.81,-1580.85 414.81,-1586.85 414.81,-1586.85 414.81,-1605.35 414.81,-1605.35 414.81,-1611.35 408.81,-1617.35 402.81,-1617.35"/>
<text xml:space="preserve" text-anchor="middle" x="340.44" y="-1600.05" font-family="Helvetica,sans-Serif" font-size="14.00">queue.offer(</text>
<text xml:space="preserve" text-anchor="middle" x="340.44" y="-1582.8" font-family="Helvetica,sans-Serif" font-size="14.00">CheckUpdate(key))</text>
</g>
<!-- CheckChanges&#45;&gt;QueueCheckUpdate -->
<g id="edge7" class="edge">
<title>CheckChanges&#45;&gt;QueueCheckUpdate</title>
<path fill="none" stroke="black" d="M240.34,-1665.61C259.54,-1652.48 282.02,-1637.08 300.82,-1624.22"/>
<polygon fill="black" stroke="black" points="302.75,-1627.14 309.02,-1618.61 298.79,-1621.37 302.75,-1627.14"/>
<text xml:space="preserve" text-anchor="middle" x="302.37" y="-1638.6" font-family="Helvetica,sans-Serif" font-size="10.00">changed</text>
</g>
<!-- CalculateTimeout -->
<g id="node8" class="node">
<title>CalculateTimeout</title>
<path fill="lightcyan" stroke="black" d="M430.94,-1537.85C430.94,-1537.85 249.94,-1537.85 249.94,-1537.85 243.94,-1537.85 237.94,-1531.85 237.94,-1525.85 237.94,-1525.85 237.94,-1455.6 237.94,-1455.6 237.94,-1449.6 243.94,-1443.6 249.94,-1443.6 249.94,-1443.6 430.94,-1443.6 430.94,-1443.6 436.94,-1443.6 442.94,-1449.6 442.94,-1455.6 442.94,-1455.6 442.94,-1525.85 442.94,-1525.85 442.94,-1531.85 436.94,-1537.85 430.94,-1537.85"/>
<text xml:space="preserve" text-anchor="middle" x="340.44" y="-1520.55" font-family="Helvetica,sans-Serif" font-size="14.00">Calculate Timeout</text>
<text xml:space="preserve" text-anchor="middle" x="340.44" y="-1503.3" font-family="Helvetica,sans-Serif" font-size="14.00">• Base: declarationTimeout</text>
<text xml:space="preserve" text-anchor="middle" x="340.44" y="-1486.05" font-family="Helvetica,sans-Serif" font-size="14.00">• Phase multiplier</text>
<text xml:space="preserve" text-anchor="middle" x="340.44" y="-1468.8" font-family="Helvetica,sans-Serif" font-size="14.00">• Near&#45;completion bonus</text>
<text xml:space="preserve" text-anchor="middle" x="340.44" y="-1451.55" font-family="Helvetica,sans-Serif" font-size="14.00">• Stall count adjustment</text>
</g>
<!-- CheckChanges&#45;&gt;CalculateTimeout -->
<g id="edge9" class="edge">
<title>CheckChanges&#45;&gt;CalculateTimeout</title>
<path fill="none" stroke="black" d="M192.84,-1665.82C190.3,-1640.01 190.48,-1602.29 207.19,-1574.85 213.88,-1563.87 222.63,-1554.11 232.45,-1545.49"/>
<polygon fill="black" stroke="black" points="234.65,-1548.22 240.17,-1539.18 230.21,-1542.8 234.65,-1548.22"/>
<text xml:space="preserve" text-anchor="middle" x="232.31" y="-1592.98" font-family="Helvetica,sans-Serif" font-size="10.00">no change</text>
</g>
<!-- QueueCheckUpdate&#45;&gt;CalculateTimeout -->
<g id="edge8" class="edge">
<title>QueueCheckUpdate&#45;&gt;CalculateTimeout</title>
<path fill="none" stroke="black" d="M340.44,-1574.68C340.44,-1567.32 340.44,-1558.6 340.44,-1549.62"/>
<polygon fill="black" stroke="black" points="343.94,-1549.72 340.44,-1539.72 336.94,-1549.72 343.94,-1549.72"/>
</g>
<!-- CheckEarlyViewChange -->
<g id="node9" class="node">
<title>CheckEarlyViewChange</title>
<path fill="none" stroke="black" d="M377.59,-1399.74C377.59,-1399.74 286.78,-1336.46 286.78,-1336.46 281.86,-1333.03 281.86,-1326.17 286.78,-1322.74 286.78,-1322.74 377.59,-1259.46 377.59,-1259.46 382.51,-1256.03 392.36,-1256.03 397.28,-1259.46 397.28,-1259.46 488.09,-1322.74 488.09,-1322.74 493.01,-1326.17 493.01,-1333.03 488.09,-1336.46 488.09,-1336.46 397.28,-1399.74 397.28,-1399.74 392.36,-1403.17 382.51,-1403.17 377.59,-1399.74"/>
<text xml:space="preserve" text-anchor="middle" x="387.44" y="-1350.8" font-family="Helvetica,sans-Serif" font-size="14.00">Leader</text>
<text xml:space="preserve" text-anchor="middle" x="387.44" y="-1333.55" font-family="Helvetica,sans-Serif" font-size="14.00">Unresponsive</text>
<text xml:space="preserve" text-anchor="middle" x="387.44" y="-1316.3" font-family="Helvetica,sans-Serif" font-size="14.00">&amp; Proposal</text>
<text xml:space="preserve" text-anchor="middle" x="387.44" y="-1299.05" font-family="Helvetica,sans-Serif" font-size="14.00">Phase?</text>
</g>
<!-- CalculateTimeout&#45;&gt;CheckEarlyViewChange -->
<g id="edge10" class="edge">
<title>CalculateTimeout&#45;&gt;CheckEarlyViewChange</title>
<path fill="none" stroke="black" d="M354.16,-1443.28C357.71,-1431.24 361.63,-1417.96 365.5,-1404.88"/>
<polygon fill="black" stroke="black" points="368.81,-1406.01 368.29,-1395.42 362.1,-1404.02 368.81,-1406.01"/>
</g>
<!-- EarlyViewChange -->
<g id="node10" class="node">
<title>EarlyViewChange</title>
<path fill="orange" stroke="black" d="M723.56,-1182.6C723.56,-1182.6 585.31,-1182.6 585.31,-1182.6 579.31,-1182.6 573.31,-1176.6 573.31,-1170.6 573.31,-1170.6 573.31,-1152.1 573.31,-1152.1 573.31,-1146.1 579.31,-1140.1 585.31,-1140.1 585.31,-1140.1 723.56,-1140.1 723.56,-1140.1 729.56,-1140.1 735.56,-1146.1 735.56,-1152.1 735.56,-1152.1 735.56,-1170.6 735.56,-1170.6 735.56,-1176.6 729.56,-1182.6 723.56,-1182.6"/>
<text xml:space="preserve" text-anchor="middle" x="654.44" y="-1165.3" font-family="Helvetica,sans-Serif" font-size="14.00">Early View Change</text>
<text xml:space="preserve" text-anchor="middle" x="654.44" y="-1148.05" font-family="Helvetica,sans-Serif" font-size="14.00">ViewChangeManager</text>
</g>
<!-- CheckEarlyViewChange&#45;&gt;EarlyViewChange -->
<g id="edge11" class="edge">
<title>CheckEarlyViewChange&#45;&gt;EarlyViewChange</title>
<path fill="none" stroke="black" d="M445.37,-1292.53C495.42,-1261.37 566.6,-1217.05 611.64,-1189"/>
<polygon fill="black" stroke="black" points="613.47,-1191.99 620.1,-1183.73 609.77,-1186.05 613.47,-1191.99"/>
<text xml:space="preserve" text-anchor="middle" x="561.33" y="-1225.1" font-family="Helvetica,sans-Serif" font-size="10.00">yes</text>
</g>
<!-- CheckStall -->
<g id="node12" class="node">
<title>CheckStall</title>
<path fill="none" stroke="black" d="M376.56,-1198.78C376.56,-1198.78 307.31,-1166.43 307.31,-1166.43 301.87,-1163.89 301.87,-1158.82 307.31,-1156.28 307.31,-1156.28 376.56,-1123.93 376.56,-1123.93 382,-1121.39 392.87,-1121.39 398.31,-1123.93 398.31,-1123.93 467.56,-1156.28 467.56,-1156.28 473,-1158.82 473,-1163.89 467.56,-1166.43 467.56,-1166.43 398.31,-1198.78 398.31,-1198.78 392.87,-1201.32 382,-1201.32 376.56,-1198.78"/>
<text xml:space="preserve" text-anchor="middle" x="387.44" y="-1165.3" font-family="Helvetica,sans-Serif" font-size="14.00">Timeout</text>
<text xml:space="preserve" text-anchor="middle" x="387.44" y="-1148.05" font-family="Helvetica,sans-Serif" font-size="14.00">Exceeded?</text>
</g>
<!-- CheckEarlyViewChange&#45;&gt;CheckStall -->
<g id="edge13" class="edge">
<title>CheckEarlyViewChange&#45;&gt;CheckStall</title>
<path fill="none" stroke="black" d="M387.44,-1252.29C387.44,-1239.87 387.44,-1227.25 387.44,-1215.54"/>
<polygon fill="black" stroke="black" points="390.94,-1215.69 387.44,-1205.69 383.94,-1215.69 390.94,-1215.69"/>
<text xml:space="preserve" text-anchor="middle" x="393.44" y="-1225.1" font-family="Helvetica,sans-Serif" font-size="10.00">no</text>
</g>
<!-- UpdateHealth -->
<g id="node11" class="node">
<title>UpdateHealth</title>
<path fill="lightgreen" stroke="black" d="M819.31,-139.6C819.31,-139.6 727.56,-139.6 727.56,-139.6 721.56,-139.6 715.56,-133.6 715.56,-127.6 715.56,-127.6 715.56,-109.1 715.56,-109.1 715.56,-103.1 721.56,-97.1 727.56,-97.1 727.56,-97.1 819.31,-97.1 819.31,-97.1 825.31,-97.1 831.31,-103.1 831.31,-109.1 831.31,-109.1 831.31,-127.6 831.31,-127.6 831.31,-133.6 825.31,-139.6 819.31,-139.6"/>
<text xml:space="preserve" text-anchor="middle" x="773.44" y="-122.3" font-family="Helvetica,sans-Serif" font-size="14.00">Update Health</text>
<text xml:space="preserve" text-anchor="middle" x="773.44" y="-105.05" font-family="Helvetica,sans-Serif" font-size="14.00">Snapshot</text>
</g>
<!-- EarlyViewChange&#45;&gt;UpdateHealth -->
<g id="edge12" class="edge">
<title>EarlyViewChange&#45;&gt;UpdateHealth</title>
<path fill="none" stroke="black" d="M716.62,-1139.79C764.1,-1119.71 821.44,-1084 821.44,-1028.6 821.44,-1028.6 821.44,-1028.6 821.44,-280.85 821.44,-233.89 802.55,-182.3 788.47,-150.37"/>
<polygon fill="black" stroke="black" points="791.68,-148.97 784.36,-141.31 785.31,-151.86 791.68,-148.97"/>
</g>
<!-- Sleep -->
<g id="node26" class="node">
<title>Sleep</title>
<path fill="none" stroke="black" d="M892.31,-51.3C892.31,-51.3 770.56,-51.3 770.56,-51.3 764.56,-51.3 758.56,-45.3 758.56,-39.3 758.56,-39.3 758.56,-20.8 758.56,-20.8 758.56,-14.8 764.56,-8.8 770.56,-8.8 770.56,-8.8 892.31,-8.8 892.31,-8.8 898.31,-8.8 904.31,-14.8 904.31,-20.8 904.31,-20.8 904.31,-39.3 904.31,-39.3 904.31,-45.3 898.31,-51.3 892.31,-51.3"/>
<text xml:space="preserve" text-anchor="middle" x="831.44" y="-34" font-family="Helvetica,sans-Serif" font-size="14.00">Adaptive Sleep</text>
<text xml:space="preserve" text-anchor="middle" x="831.44" y="-16.75" font-family="Helvetica,sans-Serif" font-size="14.00">(100ms &#45; 1000ms)</text>
</g>
<!-- UpdateHealth&#45;&gt;Sleep -->
<g id="edge35" class="edge">
<title>UpdateHealth&#45;&gt;Sleep</title>
<path fill="none" stroke="black" d="M787.18,-96.9C794.35,-86.23 803.26,-72.97 811.21,-61.16"/>
<polygon fill="black" stroke="black" points="814.07,-63.16 816.75,-52.91 808.26,-59.26 814.07,-63.16"/>
</g>
<!-- GraduatedResponse -->
<g id="node13" class="node">
<title>GraduatedResponse</title>
<path fill="none" stroke="black" d="M410.04,-1062.64C410.04,-1062.64 375.33,-1035.07 375.33,-1035.07 370.63,-1031.34 370.63,-1023.87 375.33,-1020.14 375.33,-1020.14 410.04,-992.57 410.04,-992.57 414.74,-988.84 424.13,-988.84 428.83,-992.57 428.83,-992.57 463.54,-1020.14 463.54,-1020.14 468.24,-1023.87 468.24,-1031.34 463.54,-1035.07 463.54,-1035.07 428.83,-1062.64 428.83,-1062.64 424.13,-1066.37 414.74,-1066.37 410.04,-1062.64"/>
<text xml:space="preserve" text-anchor="middle" x="419.44" y="-1031.55" font-family="Helvetica,sans-Serif" font-size="14.00">First</text>
<text xml:space="preserve" text-anchor="middle" x="419.44" y="-1014.3" font-family="Helvetica,sans-Serif" font-size="14.00">Stall?</text>
</g>
<!-- CheckStall&#45;&gt;GraduatedResponse -->
<g id="edge14" class="edge">
<title>CheckStall&#45;&gt;GraduatedResponse</title>
<path fill="none" stroke="black" d="M396.61,-1122.6C400.23,-1107.67 404.44,-1090.37 408.24,-1074.71"/>
<polygon fill="black" stroke="black" points="411.61,-1075.67 410.57,-1065.12 404.81,-1074.02 411.61,-1075.67"/>
<text xml:space="preserve" text-anchor="middle" x="413.02" y="-1091.35" font-family="Helvetica,sans-Serif" font-size="10.00">yes</text>
</g>
<!-- CheckLagging -->
<g id="node14" class="node">
<title>CheckLagging</title>
<path fill="none" stroke="black" d="M427.8,-564.95C427.8,-564.95 366.57,-519.51 366.57,-519.51 361.75,-515.93 361.75,-508.78 366.57,-505.2 366.57,-505.2 427.8,-459.76 427.8,-459.76 432.62,-456.18 442.25,-456.18 447.07,-459.76 447.07,-459.76 508.3,-505.2 508.3,-505.2 513.12,-508.78 513.12,-515.93 508.3,-519.51 508.3,-519.51 447.07,-564.95 447.07,-564.95 442.25,-568.53 432.62,-568.53 427.8,-564.95"/>
<text xml:space="preserve" text-anchor="middle" x="437.44" y="-524.93" font-family="Helvetica,sans-Serif" font-size="14.00">Majority</text>
<text xml:space="preserve" text-anchor="middle" x="437.44" y="-507.68" font-family="Helvetica,sans-Serif" font-size="14.00">at Higher</text>
<text xml:space="preserve" text-anchor="middle" x="437.44" y="-490.43" font-family="Helvetica,sans-Serif" font-size="14.00">Key?</text>
</g>
<!-- CheckStall&#45;&gt;CheckLagging -->
<g id="edge15" class="edge">
<title>CheckStall&#45;&gt;CheckLagging</title>
<path fill="none" stroke="black" d="M354.42,-1134.1C254.48,-1051.52 -29.71,-791.7 107.44,-609.1 137.73,-568.78 271.97,-539.95 359.63,-525.02"/>
<polygon fill="black" stroke="black" points="360.1,-528.5 369.38,-523.39 358.94,-521.59 360.1,-528.5"/>
<text xml:space="preserve" text-anchor="middle" x="104.25" y="-823.85" font-family="Helvetica,sans-Serif" font-size="10.00">no</text>
</g>
<!-- WarnOnly -->
<g id="node15" class="node">
<title>WarnOnly</title>
<path fill="lightyellow" stroke="black" d="M755.94,-915.1C755.94,-915.1 604.94,-915.1 604.94,-915.1 598.94,-915.1 592.94,-909.1 592.94,-903.1 592.94,-903.1 592.94,-884.6 592.94,-884.6 592.94,-878.6 598.94,-872.6 604.94,-872.6 604.94,-872.6 755.94,-872.6 755.94,-872.6 761.94,-872.6 767.94,-878.6 767.94,-884.6 767.94,-884.6 767.94,-903.1 767.94,-903.1 767.94,-909.1 761.94,-915.1 755.94,-915.1"/>
<text xml:space="preserve" text-anchor="middle" x="680.44" y="-897.8" font-family="Helvetica,sans-Serif" font-size="14.00">PEER_STALL_WARNING</text>
<text xml:space="preserve" text-anchor="middle" x="680.44" y="-880.55" font-family="Helvetica,sans-Serif" font-size="14.00">(double tolerance)</text>
</g>
<!-- GraduatedResponse&#45;&gt;WarnOnly -->
<g id="edge16" class="edge">
<title>GraduatedResponse&#45;&gt;WarnOnly</title>
<path fill="none" stroke="black" d="M451.7,-1010.32C496.2,-987.86 576.86,-947.14 629.53,-920.55"/>
<polygon fill="black" stroke="black" points="630.97,-923.74 638.32,-916.11 627.82,-917.49 630.97,-923.74"/>
<text xml:space="preserve" text-anchor="middle" x="566.39" y="-957.6" font-family="Helvetica,sans-Serif" font-size="10.00">yes</text>
</g>
<!-- CheckMissing -->
<g id="node16" class="node">
<title>CheckMissing</title>
<path fill="none" stroke="black" d="M409.24,-930.03C409.24,-930.03 361.13,-900.18 361.13,-900.18 356.04,-897.02 356.04,-890.69 361.13,-887.53 361.13,-887.53 409.24,-857.68 409.24,-857.68 414.34,-854.52 424.54,-854.52 429.63,-857.68 429.63,-857.68 477.74,-887.53 477.74,-887.53 482.84,-890.69 482.84,-897.02 477.74,-900.18 477.74,-900.18 429.63,-930.03 429.63,-930.03 424.54,-933.19 414.34,-933.19 409.24,-930.03"/>
<text xml:space="preserve" text-anchor="middle" x="419.44" y="-897.8" font-family="Helvetica,sans-Serif" font-size="14.00">Missing</text>
<text xml:space="preserve" text-anchor="middle" x="419.44" y="-880.55" font-family="Helvetica,sans-Serif" font-size="14.00">Peers?</text>
</g>
<!-- GraduatedResponse&#45;&gt;CheckMissing -->
<g id="edge18" class="edge">
<title>GraduatedResponse&#45;&gt;CheckMissing</title>
<path fill="none" stroke="black" d="M419.44,-984.56C419.44,-972.91 419.44,-960.12 419.44,-947.94"/>
<polygon fill="black" stroke="black" points="422.94,-948.02 419.44,-938.02 415.94,-948.02 422.94,-948.02"/>
<text xml:space="preserve" text-anchor="middle" x="425.44" y="-957.6" font-family="Helvetica,sans-Serif" font-size="10.00">no</text>
</g>
<!-- CheckAbandon -->
<g id="node21" class="node">
<title>CheckAbandon</title>
<path fill="none" stroke="black" d="M331.68,-319.03C331.68,-319.03 267.44,-287.18 267.44,-287.18 262.06,-284.52 262.06,-279.19 267.44,-276.53 267.44,-276.53 331.68,-244.68 331.68,-244.68 337.06,-242.02 347.81,-242.02 353.19,-244.68 353.19,-244.68 417.43,-276.53 417.43,-276.53 422.81,-279.19 422.81,-284.52 417.43,-287.18 417.43,-287.18 353.19,-319.03 353.19,-319.03 347.81,-321.69 337.06,-321.69 331.68,-319.03"/>
<text xml:space="preserve" text-anchor="middle" x="342.44" y="-285.8" font-family="Helvetica,sans-Serif" font-size="14.00">Should</text>
<text xml:space="preserve" text-anchor="middle" x="342.44" y="-268.55" font-family="Helvetica,sans-Serif" font-size="14.00">Abandon?</text>
</g>
<!-- CheckLagging&#45;&gt;CheckAbandon -->
<g id="edge31" class="edge">
<title>CheckLagging&#45;&gt;CheckAbandon</title>
<path fill="none" stroke="black" d="M402.39,-478.49C383.79,-458.78 362.54,-432.1 351.44,-403.85 342.95,-382.25 340.1,-356.83 339.61,-334.87"/>
<polygon fill="black" stroke="black" points="343.11,-334.91 339.56,-324.93 336.11,-334.94 343.11,-334.91"/>
<text xml:space="preserve" text-anchor="middle" x="357.44" y="-379.48" font-family="Helvetica,sans-Serif" font-size="10.00">no</text>
</g>
<!-- Lagging -->
<g id="node24" class="node">
<title>Lagging</title>
<path fill="lightcoral" stroke="black" d="M490.06,-403.85C490.06,-403.85 384.81,-403.85 384.81,-403.85 378.81,-403.85 372.81,-397.85 372.81,-391.85 372.81,-391.85 372.81,-373.35 372.81,-373.35 372.81,-367.35 378.81,-361.35 384.81,-361.35 384.81,-361.35 490.06,-361.35 490.06,-361.35 496.06,-361.35 502.06,-367.35 502.06,-373.35 502.06,-373.35 502.06,-391.85 502.06,-391.85 502.06,-397.85 496.06,-403.85 490.06,-403.85"/>
<text xml:space="preserve" text-anchor="middle" x="437.44" y="-386.55" font-family="Helvetica,sans-Serif" font-size="14.00">Lagging</text>
<text xml:space="preserve" text-anchor="middle" x="437.44" y="-369.3" font-family="Helvetica,sans-Serif" font-size="14.00">(retriable=false)</text>
</g>
<!-- CheckLagging&#45;&gt;Lagging -->
<g id="edge29" class="edge">
<title>CheckLagging&#45;&gt;Lagging</title>
<path fill="none" stroke="black" d="M437.44,-452.34C437.44,-439.67 437.44,-426.73 437.44,-415.56"/>
<polygon fill="black" stroke="black" points="440.94,-415.73 437.44,-405.73 433.94,-415.73 440.94,-415.73"/>
<text xml:space="preserve" text-anchor="middle" x="446.06" y="-425.1" font-family="Helvetica,sans-Serif" font-size="10.00">yes</text>
</g>
<!-- WarnOnly&#45;&gt;CheckLagging -->
<g id="edge17" class="edge">
<title>WarnOnly&#45;&gt;CheckLagging</title>
<path fill="none" stroke="black" d="M697.79,-872.14C737.51,-822.09 826.97,-692.57 764.44,-609.1 734.49,-569.14 601.8,-540.24 514.92,-525.19"/>
<polygon fill="black" stroke="black" points="515.71,-521.78 505.26,-523.55 514.53,-528.68 515.71,-521.78"/>
</g>
<!-- CheckQuorum -->
<g id="node17" class="node">
<title>CheckQuorum</title>
<path fill="none" stroke="black" d="M341.11,-798.65C341.11,-798.65 242.02,-764.06 242.02,-764.06 236.35,-762.08 236.35,-758.13 242.02,-756.15 242.02,-756.15 341.11,-721.56 341.11,-721.56 346.77,-719.58 358.1,-719.58 363.77,-721.56 363.77,-721.56 462.86,-756.15 462.86,-756.15 468.52,-758.13 468.52,-762.08 462.86,-764.06 462.86,-764.06 363.77,-798.65 363.77,-798.65 358.1,-800.63 346.77,-800.63 341.11,-798.65"/>
<text xml:space="preserve" text-anchor="middle" x="352.44" y="-764.05" font-family="Helvetica,sans-Serif" font-size="14.00">Remaining</text>
<text xml:space="preserve" text-anchor="middle" x="352.44" y="-746.8" font-family="Helvetica,sans-Serif" font-size="14.00">≥ MinQuorum?</text>
</g>
<!-- CheckMissing&#45;&gt;CheckQuorum -->
<g id="edge19" class="edge">
<title>CheckMissing&#45;&gt;CheckQuorum</title>
<path fill="none" stroke="black" d="M403.22,-860.96C394.93,-844.66 384.7,-824.55 375.6,-806.65"/>
<polygon fill="black" stroke="black" points="378.73,-805.09 371.08,-797.76 372.49,-808.26 378.73,-805.09"/>
<text xml:space="preserve" text-anchor="middle" x="396.57" y="-823.85" font-family="Helvetica,sans-Serif" font-size="10.00">yes</text>
</g>
<!-- CheckProposalPhase -->
<g id="node18" class="node">
<title>CheckProposalPhase</title>
<path fill="none" stroke="black" d="M556.01,-796.66C556.01,-796.66 502.36,-766.05 502.36,-766.05 497.15,-763.08 497.15,-757.13 502.36,-754.16 502.36,-754.16 556.01,-723.55 556.01,-723.55 561.23,-720.58 571.65,-720.58 576.86,-723.55 576.86,-723.55 630.51,-754.16 630.51,-754.16 635.73,-757.13 635.73,-763.08 630.51,-766.05 630.51,-766.05 576.86,-796.66 576.86,-796.66 571.65,-799.63 561.23,-799.63 556.01,-796.66"/>
<text xml:space="preserve" text-anchor="middle" x="566.44" y="-764.05" font-family="Helvetica,sans-Serif" font-size="14.00">Proposal</text>
<text xml:space="preserve" text-anchor="middle" x="566.44" y="-746.8" font-family="Helvetica,sans-Serif" font-size="14.00">Phase?</text>
</g>
<!-- CheckMissing&#45;&gt;CheckProposalPhase -->
<g id="edge20" class="edge">
<title>CheckMissing&#45;&gt;CheckProposalPhase</title>
<path fill="none" stroke="black" d="M447.09,-868.07C470.4,-847.18 503.96,-817.1 529.56,-794.16"/>
<polygon fill="black" stroke="black" points="531.67,-796.96 536.78,-787.68 527,-791.75 531.67,-796.96"/>
<text xml:space="preserve" text-anchor="middle" x="503.34" y="-823.85" font-family="Helvetica,sans-Serif" font-size="10.00">no</text>
</g>
<!-- Evict -->
<g id="node19" class="node">
<title>Evict</title>
<path fill="lightcoral" stroke="black" d="M428.06,-668.85C428.06,-668.85 286.81,-668.85 286.81,-668.85 280.81,-668.85 274.81,-662.85 274.81,-656.85 274.81,-656.85 274.81,-621.1 274.81,-621.1 274.81,-615.1 280.81,-609.1 286.81,-609.1 286.81,-609.1 428.06,-609.1 428.06,-609.1 434.06,-609.1 440.06,-615.1 440.06,-621.1 440.06,-621.1 440.06,-656.85 440.06,-656.85 440.06,-662.85 434.06,-668.85 428.06,-668.85"/>
<text xml:space="preserve" text-anchor="middle" x="357.44" y="-651.55" font-family="Helvetica,sans-Serif" font-size="14.00">ViewChangeManager.</text>
<text xml:space="preserve" text-anchor="middle" x="357.44" y="-634.3" font-family="Helvetica,sans-Serif" font-size="14.00">performViewChange</text>
<text xml:space="preserve" text-anchor="middle" x="357.44" y="-617.05" font-family="Helvetica,sans-Serif" font-size="14.00">WithEviction()</text>
</g>
<!-- CheckQuorum&#45;&gt;Evict -->
<g id="edge21" class="edge">
<title>CheckQuorum&#45;&gt;Evict</title>
<path fill="none" stroke="black" d="M354.17,-717.77C354.68,-705.78 355.22,-692.69 355.73,-680.73"/>
<polygon fill="black" stroke="black" points="359.22,-680.88 356.15,-670.74 352.23,-680.59 359.22,-680.88"/>
<text xml:space="preserve" text-anchor="middle" x="364.01" y="-690.1" font-family="Helvetica,sans-Serif" font-size="10.00">yes</text>
</g>
<!-- QuorumInfeasible -->
<g id="node20" class="node">
<title>QuorumInfeasible</title>
<path fill="lightpink" stroke="black" d="M244.69,-660.23C244.69,-660.23 128.19,-660.23 128.19,-660.23 122.19,-660.23 116.19,-654.23 116.19,-648.23 116.19,-648.23 116.19,-629.73 116.19,-629.73 116.19,-623.73 122.19,-617.73 128.19,-617.73 128.19,-617.73 244.69,-617.73 244.69,-617.73 250.69,-617.73 256.69,-623.73 256.69,-629.73 256.69,-629.73 256.69,-648.23 256.69,-648.23 256.69,-654.23 250.69,-660.23 244.69,-660.23"/>
<text xml:space="preserve" text-anchor="middle" x="186.44" y="-642.93" font-family="Helvetica,sans-Serif" font-size="14.00">QuorumInfeasible</text>
<text xml:space="preserve" text-anchor="middle" x="186.44" y="-625.68" font-family="Helvetica,sans-Serif" font-size="14.00">(retriable=true)</text>
</g>
<!-- CheckQuorum&#45;&gt;QuorumInfeasible -->
<g id="edge22" class="edge">
<title>CheckQuorum&#45;&gt;QuorumInfeasible</title>
<path fill="none" stroke="black" d="M313.1,-730.87C286.28,-711.63 250.97,-686.29 224.45,-667.26"/>
<polygon fill="black" stroke="black" points="226.5,-664.42 216.34,-661.44 222.42,-670.11 226.5,-664.42"/>
<text xml:space="preserve" text-anchor="middle" x="275.44" y="-690.1" font-family="Helvetica,sans-Serif" font-size="10.00">no</text>
</g>
<!-- ViewChange -->
<g id="node22" class="node">
<title>ViewChange</title>
<path fill="orange" stroke="black" d="M613.19,-660.23C613.19,-660.23 469.69,-660.23 469.69,-660.23 463.69,-660.23 457.69,-654.23 457.69,-648.23 457.69,-648.23 457.69,-629.73 457.69,-629.73 457.69,-623.73 463.69,-617.73 469.69,-617.73 469.69,-617.73 613.19,-617.73 613.19,-617.73 619.19,-617.73 625.19,-623.73 625.19,-629.73 625.19,-629.73 625.19,-648.23 625.19,-648.23 625.19,-654.23 619.19,-660.23 613.19,-660.23"/>
<text xml:space="preserve" text-anchor="middle" x="541.44" y="-642.93" font-family="Helvetica,sans-Serif" font-size="14.00">ViewChangeManager.</text>
<text xml:space="preserve" text-anchor="middle" x="541.44" y="-625.68" font-family="Helvetica,sans-Serif" font-size="14.00">performViewChange()</text>
</g>
<!-- CheckProposalPhase&#45;&gt;ViewChange -->
<g id="edge25" class="edge">
<title>CheckProposalPhase&#45;&gt;ViewChange</title>
<path fill="none" stroke="black" d="M558.6,-721.74C555.22,-705.64 551.31,-687.03 548.08,-671.63"/>
<polygon fill="black" stroke="black" points="551.55,-671.12 546.07,-662.05 544.7,-672.56 551.55,-671.12"/>
<text xml:space="preserve" text-anchor="middle" x="562.56" y="-690.1" font-family="Helvetica,sans-Serif" font-size="10.00">yes</text>
</g>
<!-- CountStall -->
<g id="node23" class="node">
<title>CountStall</title>
<path fill="none" stroke="black" d="M743.81,-660.23C743.81,-660.23 655.06,-660.23 655.06,-660.23 649.06,-660.23 643.06,-654.23 643.06,-648.23 643.06,-648.23 643.06,-629.73 643.06,-629.73 643.06,-623.73 649.06,-617.73 655.06,-617.73 655.06,-617.73 743.81,-617.73 743.81,-617.73 749.81,-617.73 755.81,-623.73 755.81,-629.73 755.81,-629.73 755.81,-648.23 755.81,-648.23 755.81,-654.23 749.81,-660.23 743.81,-660.23"/>
<text xml:space="preserve" text-anchor="middle" x="699.44" y="-642.93" font-family="Helvetica,sans-Serif" font-size="14.00">Count toward</text>
<text xml:space="preserve" text-anchor="middle" x="699.44" y="-625.68" font-family="Helvetica,sans-Serif" font-size="14.00">abandonment</text>
</g>
<!-- CheckProposalPhase&#45;&gt;CountStall -->
<g id="edge27" class="edge">
<title>CheckProposalPhase&#45;&gt;CountStall</title>
<path fill="none" stroke="black" d="M594.97,-733.55C616.53,-714.24 646.1,-687.75 668.28,-667.88"/>
<polygon fill="black" stroke="black" points="670.45,-670.64 675.56,-661.37 665.78,-665.43 670.45,-670.64"/>
<text xml:space="preserve" text-anchor="middle" x="650.85" y="-690.1" font-family="Helvetica,sans-Serif" font-size="10.00">no</text>
</g>
<!-- Evict&#45;&gt;CheckLagging -->
<g id="edge23" class="edge">
<title>Evict&#45;&gt;CheckLagging</title>
<path fill="none" stroke="black" d="M376.19,-608.76C384.99,-595.06 395.72,-578.35 405.72,-562.76"/>
<polygon fill="black" stroke="black" points="408.56,-564.82 411.02,-554.51 402.67,-561.04 408.56,-564.82"/>
</g>
<!-- QuorumInfeasible&#45;&gt;CheckAbandon -->
<g id="edge24" class="edge">
<title>QuorumInfeasible&#45;&gt;CheckAbandon</title>
<path fill="none" stroke="black" d="M195.5,-617.35C220.12,-561.29 288.7,-405.17 322.75,-327.68"/>
<polygon fill="black" stroke="black" points="325.89,-329.23 326.71,-318.67 319.48,-326.41 325.89,-329.23"/>
</g>
<!-- CheckAbandon&#45;&gt;UpdateHealth -->
<g id="edge34" class="edge">
<title>CheckAbandon&#45;&gt;UpdateHealth</title>
<path fill="none" stroke="black" d="M390.62,-262.8C468.01,-233.8 620.15,-176.79 707.53,-144.05"/>
<polygon fill="black" stroke="black" points="708.56,-147.4 716.7,-140.61 706.11,-140.85 708.56,-147.4"/>
<text xml:space="preserve" text-anchor="middle" x="675.28" y="-186.35" font-family="Helvetica,sans-Serif" font-size="10.00">no</text>
</g>
<!-- Abandon -->
<g id="node25" class="node">
<title>Abandon</title>
<path fill="red" stroke="black" d="M343.19,-139.6C343.19,-139.6 199.69,-139.6 199.69,-139.6 193.69,-139.6 187.69,-133.6 187.69,-127.6 187.69,-127.6 187.69,-109.1 187.69,-109.1 187.69,-103.1 193.69,-97.1 199.69,-97.1 199.69,-97.1 343.19,-97.1 343.19,-97.1 349.19,-97.1 355.19,-103.1 355.19,-109.1 355.19,-109.1 355.19,-127.6 355.19,-127.6 355.19,-133.6 349.19,-139.6 343.19,-139.6"/>
<text xml:space="preserve" text-anchor="middle" x="271.44" y="-122.3" font-family="Helvetica,sans-Serif" font-size="14.00" fill="white">AbandonmentTracker.</text>
<text xml:space="preserve" text-anchor="middle" x="271.44" y="-105.05" font-family="Helvetica,sans-Serif" font-size="14.00" fill="white">abandonRound()</text>
</g>
<!-- CheckAbandon&#45;&gt;Abandon -->
<g id="edge32" class="edge">
<title>CheckAbandon&#45;&gt;Abandon</title>
<path fill="none" stroke="black" d="M327.38,-246.6C314.8,-217.99 297.03,-177.57 284.92,-150.01"/>
<polygon fill="black" stroke="black" points="288.25,-148.91 281.02,-141.16 281.85,-151.73 288.25,-148.91"/>
<text xml:space="preserve" text-anchor="middle" x="358.13" y="-211.85" font-family="Helvetica,sans-Serif" font-size="10.00">yes</text>
<text xml:space="preserve" text-anchor="middle" x="358.13" y="-199.1" font-family="Helvetica,sans-Serif" font-size="10.00">maxStalls</text>
<text xml:space="preserve" text-anchor="middle" x="358.13" y="-186.35" font-family="Helvetica,sans-Serif" font-size="10.00">timeout</text>
<text xml:space="preserve" text-anchor="middle" x="358.13" y="-173.6" font-family="Helvetica,sans-Serif" font-size="10.00">quorumInfeasible</text>
<text xml:space="preserve" text-anchor="middle" x="358.13" y="-160.85" font-family="Helvetica,sans-Serif" font-size="10.00">lagging</text>
</g>
<!-- ViewChange&#45;&gt;CheckLagging -->
<g id="edge26" class="edge">
<title>ViewChange&#45;&gt;CheckLagging</title>
<path fill="none" stroke="black" d="M524.26,-617.4C510.9,-601.38 491.84,-578.55 474.99,-558.36"/>
<polygon fill="black" stroke="black" points="477.74,-556.19 468.65,-550.76 472.37,-560.68 477.74,-556.19"/>
</g>
<!-- CountStall&#45;&gt;CheckLagging -->
<g id="edge28" class="edge">
<title>CountStall&#45;&gt;CheckLagging</title>
<path fill="none" stroke="black" d="M655.88,-617.26C612.23,-596.5 544.74,-564.39 496.33,-541.37"/>
<polygon fill="black" stroke="black" points="497.9,-538.24 487.37,-537.1 494.89,-544.56 497.9,-538.24"/>
</g>
<!-- Lagging&#45;&gt;CheckAbandon -->
<g id="edge30" class="edge">
<title>Lagging&#45;&gt;CheckAbandon</title>
<path fill="none" stroke="black" d="M417.75,-361.14C406.12,-349.05 391.06,-333.39 377.46,-319.26"/>
<polygon fill="black" stroke="black" points="380.16,-317.02 370.71,-312.24 375.12,-321.88 380.16,-317.02"/>
</g>
<!-- Abandon&#45;&gt;Exit -->
<g id="edge33" class="edge">
<title>Abandon&#45;&gt;Exit</title>
<path fill="none" stroke="black" d="M218.02,-96.68C182.17,-82.81 135.21,-64.63 99.8,-50.93"/>
<polygon fill="black" stroke="black" points="101.2,-47.72 90.61,-47.37 98.68,-54.25 101.2,-47.72"/>
</g>
<!-- Sleep&#45;&gt;Poll -->
<g id="edge36" class="edge">
<title>Sleep&#45;&gt;Poll</title>
<path fill="none" stroke="black" d="M842.18,-51.72C850.08,-68.84 859.44,-94.04 859.44,-117.35 859.44,-1951.85 859.44,-1951.85 859.44,-1951.85 859.44,-2010.23 683.01,-2039.53 577.52,-2051.83"/>
<polygon fill="black" stroke="black" points="577.33,-2048.33 567.79,-2052.93 578.12,-2055.28 577.33,-2048.33"/>
</g>
<!-- QuorumNote -->
<g id="node27" class="node">
<title>QuorumNote</title>
<text xml:space="preserve" text-anchor="middle" x="779.44" y="-2185.55" font-family="Helvetica,sans-Serif" font-size="14.00">clusterSize = max(readyPeerCount + 1, facilitators)</text>
<text xml:space="preserve" text-anchor="middle" x="779.44" y="-2168.3" font-family="Helvetica,sans-Serif" font-size="14.00">minQuorum = floor(clusterSize / 2) + 1</text>
<text xml:space="preserve" text-anchor="middle" x="779.44" y="-2135.05" font-family="Helvetica,sans-Serif" font-size="14.00">Uses cluster&#45;wide Ready count, NOT round facilitator count</text>
</g>
</g>
</svg>
